<mxfile host="Electron" modified="2024-05-14T22:33:41.071Z" agent="Mozilla/5.0 (Macintosh; Intel Mac OS X 10_15_7) AppleWebKit/537.36 (KHTML, like Gecko) draw.io/22.1.18 Chrome/120.0.6099.199 Electron/28.1.2 Safari/537.36" etag="fJTfIYyPjfp3ijxQDqWe" version="22.1.18" type="device">
  <diagram name="第 1 页" id="hv9KroKrv_OEBc8BJMPJ">
    <mxGraphModel dx="852" dy="553" grid="1" gridSize="10" guides="1" tooltips="1" connect="1" arrows="1" fold="1" page="1" pageScale="1" pageWidth="827" pageHeight="1169" math="0" shadow="0">
      <root>
        <mxCell id="0" />
        <mxCell id="1" parent="0" />
        <mxCell id="NPfGwEWd1vN2mzvzB372-1" value="" style="ellipse;whiteSpace=wrap;html=1;aspect=fixed;fillColor=#f5f5f5;fontColor=#333333;strokeColor=#666666;" parent="1" vertex="1">
          <mxGeometry x="230" y="160" width="30" height="30" as="geometry" />
        </mxCell>
        <mxCell id="NPfGwEWd1vN2mzvzB372-2" value="" style="ellipse;whiteSpace=wrap;html=1;aspect=fixed;fillColor=#f5f5f5;fontColor=#333333;strokeColor=#666666;" parent="1" vertex="1">
          <mxGeometry x="305" y="160" width="30" height="30" as="geometry" />
        </mxCell>
        <mxCell id="NPfGwEWd1vN2mzvzB372-3" value="" style="ellipse;whiteSpace=wrap;html=1;aspect=fixed;fillColor=#f5f5f5;fontColor=#333333;strokeColor=#666666;" parent="1" vertex="1">
          <mxGeometry x="384" y="160" width="30" height="30" as="geometry" />
        </mxCell>
        <mxCell id="NPfGwEWd1vN2mzvzB372-4" value="" style="ellipse;whiteSpace=wrap;html=1;aspect=fixed;fillColor=#fff2cc;strokeColor=#d6b656;" parent="1" vertex="1">
          <mxGeometry x="198.25" y="230" width="30" height="30" as="geometry" />
        </mxCell>
        <mxCell id="NPfGwEWd1vN2mzvzB372-5" value="" style="ellipse;whiteSpace=wrap;html=1;aspect=fixed;fillColor=#fff2cc;strokeColor=#d6b656;" parent="1" vertex="1">
          <mxGeometry x="268.25" y="230" width="30" height="30" as="geometry" />
        </mxCell>
        <mxCell id="NPfGwEWd1vN2mzvzB372-6" value="" style="ellipse;whiteSpace=wrap;html=1;aspect=fixed;fillColor=#fff2cc;strokeColor=#d6b656;" parent="1" vertex="1">
          <mxGeometry x="338.25" y="230" width="30" height="30" as="geometry" />
        </mxCell>
        <mxCell id="NPfGwEWd1vN2mzvzB372-7" value="" style="ellipse;whiteSpace=wrap;html=1;aspect=fixed;fillColor=#fff2cc;strokeColor=#d6b656;" parent="1" vertex="1">
          <mxGeometry x="411.75" y="230" width="30" height="30" as="geometry" />
        </mxCell>
        <mxCell id="NPfGwEWd1vN2mzvzB372-8" value="" style="ellipse;whiteSpace=wrap;html=1;aspect=fixed;" parent="1" vertex="1">
          <mxGeometry x="230" y="310" width="30" height="30" as="geometry" />
        </mxCell>
        <mxCell id="NPfGwEWd1vN2mzvzB372-9" value="" style="ellipse;whiteSpace=wrap;html=1;aspect=fixed;" parent="1" vertex="1">
          <mxGeometry x="305" y="310" width="30" height="30" as="geometry" />
        </mxCell>
        <mxCell id="NPfGwEWd1vN2mzvzB372-10" value="" style="ellipse;whiteSpace=wrap;html=1;aspect=fixed;" parent="1" vertex="1">
          <mxGeometry x="384" y="310" width="30" height="30" as="geometry" />
        </mxCell>
        <mxCell id="NPfGwEWd1vN2mzvzB372-11" value="" style="endArrow=classic;html=1;rounded=0;exitX=0;exitY=0;exitDx=0;exitDy=0;entryX=0.5;entryY=1;entryDx=0;entryDy=0;" parent="1" source="NPfGwEWd1vN2mzvzB372-8" target="NPfGwEWd1vN2mzvzB372-4" edge="1">
          <mxGeometry width="50" height="50" relative="1" as="geometry">
            <mxPoint x="110" y="360" as="sourcePoint" />
            <mxPoint x="160" y="310" as="targetPoint" />
          </mxGeometry>
        </mxCell>
        <mxCell id="NPfGwEWd1vN2mzvzB372-12" value="" style="endArrow=classic;html=1;rounded=0;exitX=0.5;exitY=0;exitDx=0;exitDy=0;entryX=0.5;entryY=1;entryDx=0;entryDy=0;" parent="1" source="NPfGwEWd1vN2mzvzB372-8" target="NPfGwEWd1vN2mzvzB372-5" edge="1">
          <mxGeometry width="50" height="50" relative="1" as="geometry">
            <mxPoint x="244" y="324" as="sourcePoint" />
            <mxPoint x="223" y="270" as="targetPoint" />
          </mxGeometry>
        </mxCell>
        <mxCell id="NPfGwEWd1vN2mzvzB372-13" value="" style="endArrow=classic;html=1;rounded=0;exitX=1;exitY=0;exitDx=0;exitDy=0;entryX=0;entryY=1;entryDx=0;entryDy=0;" parent="1" source="NPfGwEWd1vN2mzvzB372-8" target="NPfGwEWd1vN2mzvzB372-6" edge="1">
          <mxGeometry width="50" height="50" relative="1" as="geometry">
            <mxPoint x="255" y="320" as="sourcePoint" />
            <mxPoint x="293" y="270" as="targetPoint" />
          </mxGeometry>
        </mxCell>
        <mxCell id="NPfGwEWd1vN2mzvzB372-14" value="" style="endArrow=classic;html=1;rounded=0;exitX=1;exitY=0.5;exitDx=0;exitDy=0;entryX=0;entryY=1;entryDx=0;entryDy=0;" parent="1" source="NPfGwEWd1vN2mzvzB372-8" target="NPfGwEWd1vN2mzvzB372-7" edge="1">
          <mxGeometry width="50" height="50" relative="1" as="geometry">
            <mxPoint x="266" y="324" as="sourcePoint" />
            <mxPoint x="353" y="266" as="targetPoint" />
          </mxGeometry>
        </mxCell>
        <mxCell id="NPfGwEWd1vN2mzvzB372-15" value="" style="endArrow=classic;html=1;rounded=0;exitX=0.033;exitY=0.321;exitDx=0;exitDy=0;exitPerimeter=0;entryX=0.73;entryY=0.951;entryDx=0;entryDy=0;entryPerimeter=0;" parent="1" source="NPfGwEWd1vN2mzvzB372-9" target="NPfGwEWd1vN2mzvzB372-4" edge="1">
          <mxGeometry width="50" height="50" relative="1" as="geometry">
            <mxPoint x="310" y="320" as="sourcePoint" />
            <mxPoint x="220" y="260" as="targetPoint" />
          </mxGeometry>
        </mxCell>
        <mxCell id="NPfGwEWd1vN2mzvzB372-16" value="" style="endArrow=classic;html=1;rounded=0;entryX=0.5;entryY=1;entryDx=0;entryDy=0;exitX=0.288;exitY=0.067;exitDx=0;exitDy=0;exitPerimeter=0;" parent="1" source="NPfGwEWd1vN2mzvzB372-9" target="NPfGwEWd1vN2mzvzB372-5" edge="1">
          <mxGeometry width="50" height="50" relative="1" as="geometry">
            <mxPoint x="310" y="310" as="sourcePoint" />
            <mxPoint x="234" y="266" as="targetPoint" />
          </mxGeometry>
        </mxCell>
        <mxCell id="NPfGwEWd1vN2mzvzB372-17" value="" style="endArrow=classic;html=1;rounded=0;entryX=0.416;entryY=1.012;entryDx=0;entryDy=0;exitX=0.712;exitY=0.055;exitDx=0;exitDy=0;exitPerimeter=0;entryPerimeter=0;" parent="1" source="NPfGwEWd1vN2mzvzB372-9" target="NPfGwEWd1vN2mzvzB372-6" edge="1">
          <mxGeometry width="50" height="50" relative="1" as="geometry">
            <mxPoint x="322" y="323" as="sourcePoint" />
            <mxPoint x="293" y="270" as="targetPoint" />
          </mxGeometry>
        </mxCell>
        <mxCell id="NPfGwEWd1vN2mzvzB372-18" value="" style="endArrow=classic;html=1;rounded=0;entryX=0.293;entryY=0.988;entryDx=0;entryDy=0;exitX=0.991;exitY=0.321;exitDx=0;exitDy=0;exitPerimeter=0;entryPerimeter=0;" parent="1" source="NPfGwEWd1vN2mzvzB372-9" target="NPfGwEWd1vN2mzvzB372-7" edge="1">
          <mxGeometry width="50" height="50" relative="1" as="geometry">
            <mxPoint x="336" y="322" as="sourcePoint" />
            <mxPoint x="361" y="270" as="targetPoint" />
          </mxGeometry>
        </mxCell>
        <mxCell id="NPfGwEWd1vN2mzvzB372-19" value="" style="endArrow=classic;html=1;rounded=0;entryX=0.5;entryY=1;entryDx=0;entryDy=0;exitX=0.553;exitY=-0.004;exitDx=0;exitDy=0;exitPerimeter=0;" parent="1" source="NPfGwEWd1vN2mzvzB372-10" target="NPfGwEWd1vN2mzvzB372-7" edge="1">
          <mxGeometry width="50" height="50" relative="1" as="geometry">
            <mxPoint x="345" y="330" as="sourcePoint" />
            <mxPoint x="431" y="270" as="targetPoint" />
          </mxGeometry>
        </mxCell>
        <mxCell id="NPfGwEWd1vN2mzvzB372-20" value="" style="endArrow=classic;html=1;rounded=0;entryX=0.709;entryY=0.937;entryDx=0;entryDy=0;exitX=0.293;exitY=0.025;exitDx=0;exitDy=0;exitPerimeter=0;entryPerimeter=0;" parent="1" source="NPfGwEWd1vN2mzvzB372-10" target="NPfGwEWd1vN2mzvzB372-6" edge="1">
          <mxGeometry width="50" height="50" relative="1" as="geometry">
            <mxPoint x="411" y="320" as="sourcePoint" />
            <mxPoint x="437" y="270" as="targetPoint" />
          </mxGeometry>
        </mxCell>
        <mxCell id="NPfGwEWd1vN2mzvzB372-21" value="" style="endArrow=classic;html=1;rounded=0;entryX=0.741;entryY=0.944;entryDx=0;entryDy=0;exitX=0.104;exitY=0.172;exitDx=0;exitDy=0;exitPerimeter=0;entryPerimeter=0;" parent="1" source="NPfGwEWd1vN2mzvzB372-10" target="NPfGwEWd1vN2mzvzB372-5" edge="1">
          <mxGeometry width="50" height="50" relative="1" as="geometry">
            <mxPoint x="403" y="321" as="sourcePoint" />
            <mxPoint x="370" y="268" as="targetPoint" />
          </mxGeometry>
        </mxCell>
        <mxCell id="NPfGwEWd1vN2mzvzB372-22" value="" style="endArrow=classic;html=1;rounded=0;entryX=0.941;entryY=0.747;entryDx=0;entryDy=0;exitX=-0.009;exitY=0.418;exitDx=0;exitDy=0;exitPerimeter=0;entryPerimeter=0;" parent="1" source="NPfGwEWd1vN2mzvzB372-10" target="NPfGwEWd1vN2mzvzB372-4" edge="1">
          <mxGeometry width="50" height="50" relative="1" as="geometry">
            <mxPoint x="397" y="325" as="sourcePoint" />
            <mxPoint x="300" y="268" as="targetPoint" />
          </mxGeometry>
        </mxCell>
        <mxCell id="NPfGwEWd1vN2mzvzB372-23" value="" style="endArrow=classic;html=1;rounded=0;entryX=0;entryY=1;entryDx=0;entryDy=0;exitX=0.5;exitY=0;exitDx=0;exitDy=0;" parent="1" source="NPfGwEWd1vN2mzvzB372-4" target="NPfGwEWd1vN2mzvzB372-1" edge="1">
          <mxGeometry width="50" height="50" relative="1" as="geometry">
            <mxPoint x="180" y="230" as="sourcePoint" />
            <mxPoint x="230" y="180" as="targetPoint" />
          </mxGeometry>
        </mxCell>
        <mxCell id="NPfGwEWd1vN2mzvzB372-24" value="" style="endArrow=classic;html=1;rounded=0;entryX=0;entryY=1;entryDx=0;entryDy=0;exitX=0.77;exitY=0.089;exitDx=0;exitDy=0;exitPerimeter=0;" parent="1" source="NPfGwEWd1vN2mzvzB372-4" target="NPfGwEWd1vN2mzvzB372-2" edge="1">
          <mxGeometry width="50" height="50" relative="1" as="geometry">
            <mxPoint x="220" y="230" as="sourcePoint" />
            <mxPoint x="255" y="200" as="targetPoint" />
          </mxGeometry>
        </mxCell>
        <mxCell id="NPfGwEWd1vN2mzvzB372-25" value="" style="endArrow=classic;html=1;rounded=0;entryX=0.018;entryY=0.678;entryDx=0;entryDy=0;exitX=0.941;exitY=0.262;exitDx=0;exitDy=0;exitPerimeter=0;entryPerimeter=0;" parent="1" source="NPfGwEWd1vN2mzvzB372-4" target="NPfGwEWd1vN2mzvzB372-3" edge="1">
          <mxGeometry width="50" height="50" relative="1" as="geometry">
            <mxPoint x="229" y="240" as="sourcePoint" />
            <mxPoint x="330" y="200" as="targetPoint" />
          </mxGeometry>
        </mxCell>
        <mxCell id="NPfGwEWd1vN2mzvzB372-26" value="" style="endArrow=classic;html=1;rounded=0;entryX=0.5;entryY=1;entryDx=0;entryDy=0;exitX=0;exitY=0;exitDx=0;exitDy=0;" parent="1" source="NPfGwEWd1vN2mzvzB372-5" target="NPfGwEWd1vN2mzvzB372-1" edge="1">
          <mxGeometry width="50" height="50" relative="1" as="geometry">
            <mxPoint x="223" y="240" as="sourcePoint" />
            <mxPoint x="255" y="200" as="targetPoint" />
          </mxGeometry>
        </mxCell>
        <mxCell id="NPfGwEWd1vN2mzvzB372-27" value="" style="endArrow=classic;html=1;rounded=0;entryX=0.5;entryY=1;entryDx=0;entryDy=0;exitX=0.5;exitY=0;exitDx=0;exitDy=0;" parent="1" source="NPfGwEWd1vN2mzvzB372-5" target="NPfGwEWd1vN2mzvzB372-2" edge="1">
          <mxGeometry width="50" height="50" relative="1" as="geometry">
            <mxPoint x="283" y="244" as="sourcePoint" />
            <mxPoint x="260" y="200" as="targetPoint" />
          </mxGeometry>
        </mxCell>
        <mxCell id="NPfGwEWd1vN2mzvzB372-28" value="" style="endArrow=classic;html=1;rounded=0;entryX=0.252;entryY=0.94;entryDx=0;entryDy=0;exitX=1;exitY=0;exitDx=0;exitDy=0;entryPerimeter=0;" parent="1" source="NPfGwEWd1vN2mzvzB372-5" target="NPfGwEWd1vN2mzvzB372-3" edge="1">
          <mxGeometry width="50" height="50" relative="1" as="geometry">
            <mxPoint x="293" y="240" as="sourcePoint" />
            <mxPoint x="330" y="200" as="targetPoint" />
          </mxGeometry>
        </mxCell>
        <mxCell id="NPfGwEWd1vN2mzvzB372-29" value="" style="endArrow=classic;html=1;rounded=0;exitX=0;exitY=0;exitDx=0;exitDy=0;entryX=0.811;entryY=0.919;entryDx=0;entryDy=0;entryPerimeter=0;" parent="1" source="NPfGwEWd1vN2mzvzB372-6" target="NPfGwEWd1vN2mzvzB372-1" edge="1">
          <mxGeometry width="50" height="50" relative="1" as="geometry">
            <mxPoint x="304" y="244" as="sourcePoint" />
            <mxPoint x="260" y="190" as="targetPoint" />
          </mxGeometry>
        </mxCell>
        <mxCell id="NPfGwEWd1vN2mzvzB372-30" value="" style="endArrow=classic;html=1;rounded=0;exitX=0.5;exitY=0;exitDx=0;exitDy=0;entryX=0.736;entryY=0.955;entryDx=0;entryDy=0;entryPerimeter=0;" parent="1" source="NPfGwEWd1vN2mzvzB372-6" target="NPfGwEWd1vN2mzvzB372-2" edge="1">
          <mxGeometry width="50" height="50" relative="1" as="geometry">
            <mxPoint x="353" y="244" as="sourcePoint" />
            <mxPoint x="267" y="195" as="targetPoint" />
          </mxGeometry>
        </mxCell>
        <mxCell id="NPfGwEWd1vN2mzvzB372-31" value="" style="endArrow=classic;html=1;rounded=0;exitX=1;exitY=0;exitDx=0;exitDy=0;entryX=0.5;entryY=1;entryDx=0;entryDy=0;" parent="1" source="NPfGwEWd1vN2mzvzB372-6" target="NPfGwEWd1vN2mzvzB372-3" edge="1">
          <mxGeometry width="50" height="50" relative="1" as="geometry">
            <mxPoint x="363" y="240" as="sourcePoint" />
            <mxPoint x="337" y="199" as="targetPoint" />
          </mxGeometry>
        </mxCell>
        <mxCell id="NPfGwEWd1vN2mzvzB372-32" value="" style="endArrow=classic;html=1;rounded=0;exitX=0.5;exitY=0;exitDx=0;exitDy=0;" parent="1" source="NPfGwEWd1vN2mzvzB372-7" target="NPfGwEWd1vN2mzvzB372-3" edge="1">
          <mxGeometry width="50" height="50" relative="1" as="geometry">
            <mxPoint x="374" y="244" as="sourcePoint" />
            <mxPoint x="409" y="200" as="targetPoint" />
          </mxGeometry>
        </mxCell>
        <mxCell id="NPfGwEWd1vN2mzvzB372-33" value="" style="endArrow=classic;html=1;rounded=0;exitX=0.249;exitY=0.075;exitDx=0;exitDy=0;exitPerimeter=0;entryX=0.928;entryY=0.777;entryDx=0;entryDy=0;entryPerimeter=0;" parent="1" source="NPfGwEWd1vN2mzvzB372-7" target="NPfGwEWd1vN2mzvzB372-2" edge="1">
          <mxGeometry width="50" height="50" relative="1" as="geometry">
            <mxPoint x="437" y="240" as="sourcePoint" />
            <mxPoint x="416" y="198" as="targetPoint" />
          </mxGeometry>
        </mxCell>
        <mxCell id="NPfGwEWd1vN2mzvzB372-34" value="" style="endArrow=classic;html=1;rounded=0;exitX=0.043;exitY=0.366;exitDx=0;exitDy=0;exitPerimeter=0;" parent="1" source="NPfGwEWd1vN2mzvzB372-7" edge="1">
          <mxGeometry width="50" height="50" relative="1" as="geometry">
            <mxPoint x="429" y="242" as="sourcePoint" />
            <mxPoint x="260" y="180" as="targetPoint" />
          </mxGeometry>
        </mxCell>
        <mxCell id="NPfGwEWd1vN2mzvzB372-35" value="Input" style="text;html=1;strokeColor=none;fillColor=none;align=center;verticalAlign=middle;whiteSpace=wrap;rounded=0;fontStyle=1" parent="1" vertex="1">
          <mxGeometry x="130" y="310" width="60" height="30" as="geometry" />
        </mxCell>
        <mxCell id="NPfGwEWd1vN2mzvzB372-36" value="Intermediate" style="text;html=1;strokeColor=none;fillColor=none;align=center;verticalAlign=middle;whiteSpace=wrap;rounded=0;fontStyle=1" parent="1" vertex="1">
          <mxGeometry x="100" y="230" width="90" height="30" as="geometry" />
        </mxCell>
        <mxCell id="NPfGwEWd1vN2mzvzB372-37" value="Output" style="text;html=1;strokeColor=none;fillColor=none;align=center;verticalAlign=middle;whiteSpace=wrap;rounded=0;fontStyle=1" parent="1" vertex="1">
          <mxGeometry x="136" y="160" width="60" height="30" as="geometry" />
        </mxCell>
        <mxCell id="NPfGwEWd1vN2mzvzB372-40" value="&lt;font style=&quot;font-size: 18px;&quot;&gt;tasks&lt;/font&gt;" style="text;html=1;strokeColor=none;fillColor=none;align=center;verticalAlign=middle;whiteSpace=wrap;rounded=0;" parent="1" vertex="1">
          <mxGeometry x="290" y="360" width="60" height="30" as="geometry" />
        </mxCell>
        <mxCell id="NPfGwEWd1vN2mzvzB372-41" value="" style="ellipse;whiteSpace=wrap;html=1;aspect=fixed;" parent="1" vertex="1">
          <mxGeometry x="500" y="310" width="30" height="30" as="geometry" />
        </mxCell>
        <mxCell id="NPfGwEWd1vN2mzvzB372-42" value="" style="ellipse;whiteSpace=wrap;html=1;aspect=fixed;" parent="1" vertex="1">
          <mxGeometry x="575" y="310" width="30" height="30" as="geometry" />
        </mxCell>
        <mxCell id="NPfGwEWd1vN2mzvzB372-43" value="" style="ellipse;whiteSpace=wrap;html=1;aspect=fixed;" parent="1" vertex="1">
          <mxGeometry x="650" y="310" width="30" height="30" as="geometry" />
        </mxCell>
        <mxCell id="NPfGwEWd1vN2mzvzB372-44" value="" style="endArrow=none;dashed=1;html=1;dashPattern=1 3;strokeWidth=2;rounded=0;" parent="1" edge="1">
          <mxGeometry width="50" height="50" relative="1" as="geometry">
            <mxPoint x="460" y="335" as="sourcePoint" />
            <mxPoint x="460" y="165" as="targetPoint" />
          </mxGeometry>
        </mxCell>
        <mxCell id="NPfGwEWd1vN2mzvzB372-45" value="" style="ellipse;whiteSpace=wrap;html=1;aspect=fixed;fillColor=#f5f5f5;fontColor=#333333;strokeColor=#666666;" parent="1" vertex="1">
          <mxGeometry x="500" y="160" width="30" height="30" as="geometry" />
        </mxCell>
        <mxCell id="NPfGwEWd1vN2mzvzB372-46" value="" style="ellipse;whiteSpace=wrap;html=1;aspect=fixed;fillColor=#f5f5f5;fontColor=#333333;strokeColor=#666666;" parent="1" vertex="1">
          <mxGeometry x="575" y="160" width="30" height="30" as="geometry" />
        </mxCell>
        <mxCell id="NPfGwEWd1vN2mzvzB372-47" value="" style="ellipse;whiteSpace=wrap;html=1;aspect=fixed;fillColor=#f5f5f5;fontColor=#333333;strokeColor=#666666;" parent="1" vertex="1">
          <mxGeometry x="650" y="160" width="30" height="30" as="geometry" />
        </mxCell>
        <mxCell id="NPfGwEWd1vN2mzvzB372-48" value="" style="ellipse;whiteSpace=wrap;html=1;aspect=fixed;fillColor=#dae8fc;strokeColor=#6c8ebf;" parent="1" vertex="1">
          <mxGeometry x="575" y="230" width="30" height="30" as="geometry" />
        </mxCell>
        <mxCell id="NPfGwEWd1vN2mzvzB372-49" value="" style="endArrow=classic;html=1;rounded=0;entryX=0.05;entryY=0.808;entryDx=0;entryDy=0;entryPerimeter=0;exitX=0.5;exitY=0;exitDx=0;exitDy=0;" parent="1" source="NPfGwEWd1vN2mzvzB372-41" target="NPfGwEWd1vN2mzvzB372-48" edge="1">
          <mxGeometry width="50" height="50" relative="1" as="geometry">
            <mxPoint x="490" y="410" as="sourcePoint" />
            <mxPoint x="540" y="360" as="targetPoint" />
          </mxGeometry>
        </mxCell>
        <mxCell id="NPfGwEWd1vN2mzvzB372-50" value="" style="endArrow=classic;html=1;rounded=0;entryX=0.5;entryY=1;entryDx=0;entryDy=0;exitX=0.5;exitY=0;exitDx=0;exitDy=0;" parent="1" source="NPfGwEWd1vN2mzvzB372-42" target="NPfGwEWd1vN2mzvzB372-48" edge="1">
          <mxGeometry width="50" height="50" relative="1" as="geometry">
            <mxPoint x="525" y="320" as="sourcePoint" />
            <mxPoint x="587" y="274" as="targetPoint" />
          </mxGeometry>
        </mxCell>
        <mxCell id="NPfGwEWd1vN2mzvzB372-51" value="" style="endArrow=classic;html=1;rounded=0;entryX=1;entryY=1;entryDx=0;entryDy=0;exitX=0;exitY=0;exitDx=0;exitDy=0;" parent="1" source="NPfGwEWd1vN2mzvzB372-43" target="NPfGwEWd1vN2mzvzB372-48" edge="1">
          <mxGeometry width="50" height="50" relative="1" as="geometry">
            <mxPoint x="600" y="320" as="sourcePoint" />
            <mxPoint x="600" y="280" as="targetPoint" />
          </mxGeometry>
        </mxCell>
        <mxCell id="NPfGwEWd1vN2mzvzB372-52" value="" style="endArrow=classic;html=1;rounded=0;entryX=0;entryY=1;entryDx=0;entryDy=0;exitX=1;exitY=0;exitDx=0;exitDy=0;" parent="1" source="NPfGwEWd1vN2mzvzB372-48" target="NPfGwEWd1vN2mzvzB372-47" edge="1">
          <mxGeometry width="50" height="50" relative="1" as="geometry">
            <mxPoint x="664" y="324" as="sourcePoint" />
            <mxPoint x="611" y="276" as="targetPoint" />
          </mxGeometry>
        </mxCell>
        <mxCell id="NPfGwEWd1vN2mzvzB372-53" value="" style="endArrow=classic;html=1;rounded=0;entryX=0.5;entryY=1;entryDx=0;entryDy=0;exitX=0.5;exitY=0;exitDx=0;exitDy=0;" parent="1" source="NPfGwEWd1vN2mzvzB372-48" target="NPfGwEWd1vN2mzvzB372-46" edge="1">
          <mxGeometry width="50" height="50" relative="1" as="geometry">
            <mxPoint x="611" y="254" as="sourcePoint" />
            <mxPoint x="664" y="196" as="targetPoint" />
          </mxGeometry>
        </mxCell>
        <mxCell id="NPfGwEWd1vN2mzvzB372-54" value="" style="endArrow=classic;html=1;rounded=0;entryX=0.5;entryY=1;entryDx=0;entryDy=0;exitX=0;exitY=0;exitDx=0;exitDy=0;" parent="1" source="NPfGwEWd1vN2mzvzB372-48" target="NPfGwEWd1vN2mzvzB372-45" edge="1">
          <mxGeometry width="50" height="50" relative="1" as="geometry">
            <mxPoint x="600" y="250" as="sourcePoint" />
            <mxPoint x="600" y="200" as="targetPoint" />
          </mxGeometry>
        </mxCell>
        <mxCell id="NPfGwEWd1vN2mzvzB372-55" value="&lt;span style=&quot;font-size: 18px;&quot;&gt;p2p&lt;/span&gt;" style="text;html=1;strokeColor=none;fillColor=none;align=center;verticalAlign=middle;whiteSpace=wrap;rounded=0;" parent="1" vertex="1">
          <mxGeometry x="560" y="360" width="60" height="30" as="geometry" />
        </mxCell>
        <mxCell id="NPfGwEWd1vN2mzvzB372-56" value="Input" style="text;html=1;strokeColor=none;fillColor=none;align=center;verticalAlign=middle;whiteSpace=wrap;rounded=0;fontStyle=1" parent="1" vertex="1">
          <mxGeometry x="700" y="310" width="60" height="30" as="geometry" />
        </mxCell>
        <mxCell id="NPfGwEWd1vN2mzvzB372-57" value="&lt;b&gt;Barrier&lt;/b&gt;" style="text;html=1;strokeColor=none;fillColor=none;align=center;verticalAlign=middle;whiteSpace=wrap;rounded=0;" parent="1" vertex="1">
          <mxGeometry x="700" y="240" width="60" height="30" as="geometry" />
        </mxCell>
        <mxCell id="NPfGwEWd1vN2mzvzB372-58" value="&lt;b&gt;Output&lt;/b&gt;" style="text;html=1;strokeColor=none;fillColor=none;align=center;verticalAlign=middle;whiteSpace=wrap;rounded=0;" parent="1" vertex="1">
          <mxGeometry x="700" y="160" width="60" height="30" as="geometry" />
        </mxCell>
      </root>
    </mxGraphModel>
  </diagram>
</mxfile>
